HIERARCHY
ROOT rootx
{
    OFFSET 0.0 0.0 0.0
    CHANNELS 6 Xposition Yposition Zposition Zrotation Xrotation Yrotation
    JOINT spine_01x
    {
        OFFSET 0.0 5.0 0.0
        CHANNELS 3 Zrotation Xrotation Yrotation
        JOINT spine_02x
        {
            OFFSET 0.0 5.0 0.0
            CHANNELS 3 Zrotation Xrotation Yrotation
            JOINT spine_03x
            {
                OFFSET 0.0 5.0 0.0
                CHANNELS 3 Zrotation Xrotation Yrotation
                JOINT neckx
                {
                    OFFSET 0.0 8.0 0.0
                    CHANNELS 3 Zrotation Xrotation Yrotation
                    JOINT headx
                    {
                        OFFSET 0.0 5.0 0.0
                        CHANNELS 3 Zrotation Xrotation Yrotation
                        End Site
                        {
                            OFFSET 0.0 3.0 0.0
                        }
                    }
                }
                JOINT shoulderr
                {
                    OFFSET 5.0 0.0 0.0
                    CHANNELS 3 Zrotation Xrotation Yrotation
                    JOINT arm_stretchr
                    {
                        OFFSET 0.0 -10.0 0.0
                        CHANNELS 3 Zrotation Xrotation Yrotation
                        JOINT forearm_stretchr
                        {
                            OFFSET 0.0 -10.0 0.0
                            CHANNELS 3 Zrotation Xrotation Yrotation
                            End Site
                            {
                                OFFSET 0.0 -3.0 0.0
                            }
                        }
                    }
                }
                JOINT shoulderl
                {
                    OFFSET -5.0 0.0 0.0
                    CHANNELS 3 Zrotation Xrotation Yrotation
                    JOINT arm_stretchl
                    {
                        OFFSET 0.0 -10.0 0.0
                        CHANNELS 3 Zrotation Xrotation Yrotation
                        JOINT forearm_stretchl
                        {
                            OFFSET 0.0 -10.0 0.0
                            CHANNELS 3 Zrotation Xrotation Yrotation
                            End Site
                            {
                                OFFSET 0.0 -3.0 0.0
                            }
                        }
                    }
                }
            }
        }
    }
    JOINT thigh_stretchl
    {
        OFFSET -2.0 0.0 0.0
        CHANNELS 3 Zrotation Xrotation Yrotation
        JOINT leg_stretchl
        {
            OFFSET 0.0 -10.0 0.0
            CHANNELS 3 Zrotation Xrotation Yrotation
            End Site
            {
                OFFSET 0.0 -3.0 0.0
            }
        }
    }
    JOINT thigh_stretchr
    {
        OFFSET 2.0 0.0 0.0
        CHANNELS 3 Zrotation Xrotation Yrotation
        JOINT leg_stretchr
        {
            OFFSET 0.0 -10.0 0.0
            CHANNELS 3 Zrotation Xrotation Yrotation
            End Site
            {
                OFFSET 0.0 -3.0 0.0
            }
        }
    }
}

MOTION
Frames: 14
Frame Time: 0.033333
0.000000 0.000000 3.000000 0.000000 0.000000 0.000000 0.000000 0.900000 0.000000 0.298876 0.595685 0.098962 0.443280 0.437102 0.143828 0.434966 0.280769 0.136328 0.451714 0.212879 0.134635 0.000000 6.000000 0.000000 4.483144 8.935278 1.484424 11.820808 11.656056 3.835404 -20.000000 -4.854102 4.000000 -29.663132 -6.595506 5.813475 -38.213460 -7.753330 7.020660 0.000000 4.500000 0.000000 3.735953 7.446065 1.237020 -15.000000 -3.640576 3.000000 -24.719277 -5.496255 4.844562
0.157054 0.000000 2.999467 0.000000 0.000000 0.000000 0.282325 0.897443 0.093861 0.483653 0.588582 0.158372 0.576171 0.427803 0.183242 0.517775 0.272011 0.157542 0.511846 0.203926 0.146501 1.882166 5.982953 0.625738 7.254795 8.828734 2.375576 15.364551 11.408075 4.886457 -19.911239 -4.574655 3.950753 -29.109585 -6.115491 5.509686 -36.931431 -7.041390 6.334235 1.411625 4.487215 0.469303 6.045662 7.357278 1.979647 -14.933429 -3.430991 2.963065 -24.257988 -5.096243 4.591405
0.313953 0.000000 2.997868 0.000000 0.000000 0.000000 0.562144 0.889787 0.185410 0.664137 0.578135 0.213882 0.703947 0.416073 0.218145 0.595988 0.261707 0.174876 0.567435 0.193814 0.154760 3.747626 5.931910 1.236068 9.962052 8.672023 3.208233 18.771918 11.095272 5.817190 -19.645745 -4.269214 3.804226 -28.297659 -5.600727 5.070231 -35.321596 -6.289439 5.491840 2.810720 4.448933 0.927051 8.301710 7.226686 2.673528 -14.734309 -3.201911 2.853170 -23.581383 -4.667272 4.225192
0.470542 0.000000 2.995205 0.000000 0.000000 0.000000 0.836973 0.877074 0.272394 0.838726 0.564402 0.264126 0.825475 0.401978 0.247676 0.668911 0.249916 0.187905 0.617987 0.182601 0.159208 5.579822 5.847161 1.815962 12.580885 8.466037 3.961893 22.012663 10.719423 6.604683 -19.205874 -3.939515 3.564026 -27.234561 -5.054138 4.505929 -33.398244 -5.501750 4.514217 4.184867 4.385371 1.361971 10.484071 7.055031 3.301578 -14.404405 -2.954636 2.673020 -22.695468 -4.211782 3.754941
0.626666 0.000000 2.991477 0.000000 0.000000 0.000000 1.104374 0.859378 0.352671 1.005870 0.547463 0.307867 0.939676 0.385600 0.271108 0.735897 0.236704 0.196307 0.663054 0.170350 0.159735 7.362491 5.729187 2.351141 15.088049 8.211944 4.617999 25.058022 10.282664 7.229548 -18.595530 -3.587430 3.236068 -25.929728 -4.478831 3.830677 -31.178446 -4.682799 3.425440 5.521868 4.296890 1.763356 12.573374 6.843287 3.848332 -13.946647 -2.690572 2.427051 -21.608106 -3.732359 3.192231
0.782172 0.000000 2.986686 0.000000 0.000000 0.000000 1.361971 0.836799 0.424264 1.164086 0.527413 0.344026 1.045536 0.367030 0.287865 0.796352 0.222148 0.199875 0.702236 0.157132 0.156330 9.079810 5.578659 2.828427 17.461291 7.911190 5.160393 27.880965 9.787476 7.676397 -17.820130 -3.214961 2.828427 -24.394740 -3.878074 3.061101 -28.681907 -3.837239 2.252316 6.809857 4.183994 2.121320 14.551076 6.592658 4.300328 -13.365098 -2.411221 2.121320 -20.328950 -3.231728 2.550918
0.936907 0.000000 2.980834 0.000000 0.000000 0.000000 1.607480 0.809465 0.485410 1.311970 0.504366 0.371715 1.142116 0.346375 0.297534 0.849737 0.206330 0.198521 0.735184 0.143020 0.149075 10.716536 5.396432 3.236068 19.679545 7.565483 5.575722 30.456434 9.236675 7.934228 -16.886559 -2.824224 2.351141 -22.643222 -3.255281 2.216151 -25.930785 -2.969876 1.023733 8.037402 4.047324 2.427051 16.399621 6.304569 4.646435 -12.664919 -2.118168 1.763356 -18.869352 -2.712734 1.846792
1.090716 0.000000 2.973923 0.000000 0.000000 0.000000 1.838721 0.777531 0.534604 1.448208 0.478452 0.390251 1.228559 0.323752 0.299876 0.895581 0.189339 0.192279 0.761607 0.128096 0.138149 12.258141 5.183541 3.564026 21.723122 7.176787 5.853758 32.761570 8.633389 7.996691 -15.803100 -2.417439 1.815962 -20.690722 -2.613991 1.316631 -22.949500 -2.085637 -0.230057 9.193606 3.887655 2.673020 18.102601 5.980656 4.878132 -11.852325 -1.813079 1.361971 -17.242268 -2.178326 1.097192
1.243449 0.000000 2.965955 0.000000 0.000000 0.000000 2.053641 0.741179 0.570634 1.571592 0.449821 0.399177 1.304097 0.299289 0.294834 0.933475 0.171272 0.181303 0.781270 0.112444 0.123822 13.690942 4.941196 3.804226 23.573883 6.747311 5.987655 34.775912 7.981046 7.862250 -14.579373 -1.996917 1.236068 -18.554570 -1.957848 0.384692 -19.764513 -1.189547 -1.478183 10.268207 3.705897 2.853170 19.644902 5.622759 4.989713 -10.934529 -1.497688 0.927051 -15.462141 -1.631540 0.320576
1.394956 0.000000 2.956934 0.000000 0.000000 0.000000 2.250333 0.700616 0.592613 1.681027 0.418633 0.398274 1.368059 0.273126 0.282533 0.963083 0.152232 0.165862 0.793999 0.096153 0.106446 15.002221 4.670774 3.950753 25.215400 6.279496 5.974116 36.481580 7.283353 7.534214 -13.226237 -1.565049 0.625738 -16.253725 -1.290580 -0.556720 -16.404095 -0.286698 -2.689911 11.251666 3.503080 2.963065 21.012834 5.232913 4.978430 -9.919678 -1.173787 0.469303 -13.544771 -1.075483 -0.463934
1.545085 0.000000 2.946862 0.000000 0.000000 0.000000 2.427051 0.656072 0.600000 1.775540 0.385067 0.387565 1.419879 0.245410 0.263275 0.984143 0.132327 0.146338 0.799679 0.079316 0.086448 16.180340 4.373812 4.000000 26.633104 5.775999 5.813475 37.863435 6.544275 7.020660 -11.755705 -1.124288 0.000000 -13.808612 -0.615978 -1.484424 -12.898073 0.617780 -3.835404 12.135255 3.280359 3.000000 22.194253 4.813333 4.844562 -8.816779 -0.843216 0.000000 -11.507177 -0.513315 -1.237020
1.693690 0.000000 2.935743 0.000000 0.000000 0.000000 2.582226 0.607800 0.592613 1.854294 0.349312 0.367312 1.459095 0.216300 0.237534 0.996468 0.111670 0.123210 0.798262 0.062028 0.064322 17.214841 4.051997 3.950753 27.814411 5.239682 5.509686 38.909212 5.768011 6.334235 -10.180828 -0.677138 -0.625738 -11.240932 0.062123 -2.375576 -9.277567 1.518748 -4.886457 12.911130 3.038998 2.963065 23.178676 4.366402 4.591405 -7.635621 -0.507854 -0.469303 -9.367444 0.051770 -1.979647
1.840623 0.000000 2.923581 0.000000 0.000000 0.000000 2.714481 0.556074 0.570634 1.916589 0.311573 0.338015 1.485361 0.185961 0.205944 0.999948 0.090379 0.097048 0.789759 0.044387 0.040613 18.096541 3.707158 3.804226 28.748834 4.673592 5.070231 39.609627 4.958972 5.491840 -8.515586 -0.226141 -1.236068 -8.573478 0.739872 -3.208233 -5.574713 2.411086 -5.817190 13.572406 2.780368 2.853170 23.957362 3.894660 4.225192 -6.386689 -0.169606 -0.927051 -7.144565 0.616560 -2.673528
1.985739 0.000000 2.910380 0.000000 0.000000 0.000000 2.822642 0.501188 0.534604 1.961872 0.272063 0.300395 1.498442 0.154566 0.169283 0.994553 0.068574 0.068496 0.774247 0.026495 0.015903 18.817615 3.341254 3.564026 29.428082 4.080946 4.505929 39.958465 4.121755 4.514217 -6.774758 0.226141 -1.815962 -5.829924 1.413417 -3.961893 -1.822377 3.289724 -6.604683 14.113212 2.505940 2.673020 24.523401 3.400788 3.754941 -5.081069 0.169606 -1.361971 -4.858270 1.177847 -3.301578
